<svg xmlns="http://www.w3.org/2000/svg" viewBox="0 0 512 512">
  <rect width="512" height="512" rx="116" fill="#0b1713"/>
  <ellipse cx="256" cy="258" rx="176" ry="124" fill="#14634d" stroke="#9ee8c3" stroke-width="18"/>
  <circle cx="256" cy="91" r="34" fill="#f5b25e"/>
  <circle cx="405" cy="180" r="34" fill="#f6f0df"/>
  <circle cx="405" cy="338" r="34" fill="#f6f0df"/>
  <circle cx="256" cy="421" r="34" fill="#f6f0df"/>
  <circle cx="107" cy="338" r="34" fill="#f6f0df"/>
  <circle cx="107" cy="180" r="34" fill="#f6f0df"/>
  <path d="M256 175c-30 44-72 77-72 114 0 30 23 51 51 51 9 0 17-2 24-6l-13 42h50l-13-42c7 4 15 6 24 6 28 0 51-21 51-51 0-37-42-70-72-114l-15-24-15 24Z" fill="#f6f0df"/>
</svg>
